<svg width="28" height="28" viewBox="0 0 28 28" fill="none" xmlns="http://www.w3.org/2000/svg">
<path fill-rule="evenodd" clip-rule="evenodd" d="M8.97777 15.6226C8.22555 15.6226 7.61444 15.0115 7.61444 14.2593C7.61444 13.5093 8.22555 12.8982 8.97777 12.8982C9.73 12.8982 10.3411 13.5093 10.3411 14.2593C10.3411 15.0115 9.73 15.6226 8.97777 15.6226ZM14.2777 15.6226C13.5255 15.6226 12.9144 15.0115 12.9144 14.2593C12.9144 13.5093 13.5255 12.8982 14.2777 12.8982C15.03 12.8982 15.6411 13.5093 15.6411 14.2593C15.6411 15.0115 15.03 15.6226 14.2777 15.6226ZM18.2146 14.2593C18.2146 15.0115 18.8257 15.6226 19.5779 15.6226C20.3301 15.6226 20.9412 15.0115 20.9412 14.2593C20.9412 13.5093 20.3301 12.8982 19.5779 12.8982C18.8257 12.8982 18.2146 13.5093 18.2146 14.2593Z" fill="#BDBDBD"/>
<path fill-rule="evenodd" clip-rule="evenodd" d="M14.0233 2.33331C7.24498 2.33331 2.33331 7.87045 2.33331 14.0175C2.33331 15.9805 2.90498 18.0006 3.90831 19.8468C4.09498 20.1517 4.11831 20.5361 3.98998 20.8995L3.20831 23.5168C3.03331 24.1477 3.56998 24.6139 4.16498 24.427L6.52165 23.7271C7.16331 23.5168 7.66498 23.7843 8.25998 24.1477C9.96331 25.1514 12.0866 25.6666 14 25.6666C19.7866 25.6666 25.6666 21.1916 25.6666 13.9825C25.6666 7.7653 20.65 2.33331 14.0233 2.33331Z" stroke="#BDBDBD" stroke-width="1.5" stroke-linecap="round" stroke-linejoin="round"/>
</svg>
