<svg width="33" height="33" viewBox="0 0 33 33" fill="none" xmlns="http://www.w3.org/2000/svg">
<path fill-rule="evenodd" clip-rule="evenodd" d="M18.6846 5.66749C18.2841 5.50002 17.7764 5.50002 16.761 5.50002C15.7457 5.50002 15.238 5.50002 14.8375 5.66749C14.3035 5.89077 13.8793 6.31906 13.6581 6.85812C13.5572 7.1042 13.5177 7.39037 13.5022 7.80781C13.4795 8.42127 13.1679 8.9891 12.6412 9.29604C12.1146 9.60298 11.4717 9.59152 10.9341 9.30466C10.5683 9.10945 10.303 9.00091 10.0415 8.96614C9.46846 8.88998 8.88895 9.04674 8.43043 9.40194C8.08654 9.66834 7.83269 10.1122 7.32501 10.9999C6.81732 11.8877 6.56348 12.3316 6.5069 12.7654C6.43147 13.3439 6.58674 13.9289 6.93858 14.3919C7.09917 14.6031 7.32487 14.7808 7.67515 15.003C8.19011 15.3296 8.52144 15.8861 8.52141 16.5C8.52138 17.114 8.19005 17.6703 7.67515 17.997C7.32481 18.2192 7.09908 18.3968 6.93847 18.6081C6.58664 19.071 6.43136 19.6561 6.5068 20.2346C6.56338 20.6684 6.81722 21.1123 7.3249 22C7.83259 22.8878 8.08643 23.3316 8.43032 23.598C8.88884 23.9532 9.46835 24.11 10.0414 24.0338C10.3029 23.9991 10.5682 23.8905 10.934 23.6954C11.4716 23.4085 12.1145 23.397 12.6412 23.704C13.1678 24.0109 13.4795 24.5788 13.5022 25.1923C13.5177 25.6097 13.5572 25.8959 13.6581 26.1419C13.8793 26.681 14.3035 27.1093 14.8375 27.3326C15.238 27.5 15.7457 27.5 16.761 27.5C17.7764 27.5 18.2841 27.5 18.6846 27.3326C19.2185 27.1093 19.6427 26.681 19.8639 26.1419C19.9649 25.8958 20.0044 25.6097 20.0199 25.1922C20.0426 24.5788 20.3542 24.0109 20.8808 23.704C21.4074 23.397 22.0504 23.4084 22.588 23.6953C22.9538 23.8905 23.219 23.999 23.4806 24.0338C24.0536 24.1099 24.6331 23.9532 25.0916 23.598C25.4355 23.3316 25.6894 22.8877 26.197 21.9999C26.7047 21.1122 26.9586 20.6683 27.0152 20.2345C27.0906 19.656 26.9353 19.0709 26.5835 18.608C26.4229 18.3967 26.1972 18.2191 25.8468 17.9969C25.3319 17.6703 25.0006 17.1139 25.0006 16.4999C25.0007 15.8861 25.332 15.3297 25.8468 15.0031C26.1972 14.7809 26.423 14.6032 26.5836 14.3919C26.9354 13.929 27.0907 13.344 27.0153 12.7655C26.9587 12.3316 26.7048 11.8878 26.1972 11C25.6895 10.1123 25.4356 9.66841 25.0917 9.40202C24.6332 9.04682 24.0537 8.89006 23.4807 8.96621C23.2191 9.00098 22.9539 9.10951 22.5881 9.3047C22.0505 9.59157 21.4075 9.60304 20.8809 9.29608C20.3542 8.98912 20.0426 8.42125 20.0199 7.80775C20.0044 7.39035 19.9649 7.10418 19.8639 6.85812C19.6427 6.31906 19.2185 5.89077 18.6846 5.66749Z" fill="#85D062"/>
<path d="M20.0297 16.5C20.0297 18.3225 18.5662 19.8 16.7609 19.8C14.9556 19.8 13.4921 18.3225 13.4921 16.5C13.4921 14.6775 14.9556 13.2 16.7609 13.2C18.5662 13.2 20.0297 14.6775 20.0297 16.5Z" fill="white"/>
</svg>
