<svg width="24" height="24" viewBox="0 0 24 24" fill="none" xmlns="http://www.w3.org/2000/svg">
<path d="M11.6556 8.00012L3.88519 16.0001V20.0001L7.7704 20.0001L15.5408 12.0001M11.6556 8.00012L14.4419 5.13146L14.4436 5.12976C14.8271 4.73488 15.0193 4.53709 15.2407 4.46301C15.4358 4.39775 15.6459 4.39775 15.841 4.46301C16.0623 4.53704 16.2542 4.7346 16.6372 5.12892L18.3271 6.86872C18.7118 7.26474 18.9042 7.46284 18.9762 7.69117C19.0396 7.89201 19.0396 8.10835 18.9762 8.3092C18.9042 8.53736 18.7121 8.73516 18.328 9.13061L18.3271 9.13146L15.5408 12.0001M11.6556 8.00012L15.5408 12.0001" stroke="black" stroke-opacity="0.6" stroke-width="2" stroke-linecap="round" stroke-linejoin="round"/>
</svg>
