<svg width="28" height="28" viewBox="0 0 28 28" fill="none" xmlns="http://www.w3.org/2000/svg">
<path fill-rule="evenodd" clip-rule="evenodd" d="M10.6834 24.0025V20.4587C10.6834 19.5573 11.4253 18.8249 12.3445 18.8189H15.7116C16.6352 18.8189 17.3839 19.5531 17.3839 20.4587V24.0135C17.3837 24.7788 18.0066 25.4043 18.7869 25.4222H21.0316C23.2693 25.4222 25.0833 23.6434 25.0833 21.4492V11.3681C25.0714 10.5049 24.658 9.69434 23.961 9.16704L16.284 3.103C14.9391 2.04713 13.0272 2.04713 11.6823 3.103L4.03902 9.17805C3.33929 9.70321 2.92527 10.5152 2.91666 11.3792V21.4492C2.91666 23.6434 4.73068 25.4222 6.96839 25.4222H9.21311C10.0127 25.4222 10.661 24.7866 10.661 24.0025" fill="#00A3FF"/>
<path d="M10.6834 24.0025V20.4587C10.6834 19.5573 11.4253 18.8249 12.3445 18.8189H15.7116C16.6352 18.8189 17.3839 19.5531 17.3839 20.4587V20.4587V24.0135C17.3837 24.7788 18.0066 25.4043 18.7869 25.4222H21.0316C23.2693 25.4222 25.0833 23.6434 25.0833 21.4492V21.4492V11.3681C25.0714 10.5049 24.658 9.69434 23.961 9.16704L16.284 3.103C14.9391 2.04713 13.0272 2.04713 11.6823 3.103L4.03902 9.17805C3.33929 9.70321 2.92527 10.5152 2.91666 11.3792V21.4492C2.91666 23.6434 4.73068 25.4222 6.96839 25.4222H9.21311C10.0127 25.4222 10.661 24.7866 10.661 24.0025V24.0025" stroke="#00A3FF" stroke-width="1.5" stroke-linecap="round" stroke-linejoin="round"/>
</svg>
