<svg width="20" height="20" viewBox="0 0 20 20" fill="none" xmlns="http://www.w3.org/2000/svg">
<g clip-path="url(#clip0_1_495)">
<path d="M19.3924 7.84904C18.6401 6.61714 17.6912 5.51675 16.5833 4.59154L18.9166 2.25821C19.0684 2.10104 19.1524 1.89054 19.1505 1.67204C19.1486 1.45354 19.0609 1.24453 18.9064 1.09003C18.7519 0.935518 18.5429 0.847877 18.3244 0.845979C18.1059 0.84408 17.8954 0.928075 17.7383 1.07987L15.2008 3.62071C13.6277 2.68639 11.8294 2.19943 9.99992 2.21237C4.84075 2.21237 1.90075 5.74404 0.607421 7.84904C0.207861 8.4953 -0.00378418 9.24008 -0.00378418 9.99987C-0.00378418 10.7597 0.207861 11.5045 0.607421 12.1507C1.35972 13.3826 2.30866 14.483 3.41659 15.4082L1.08325 17.7415C1.00366 17.8184 0.940177 17.9104 0.896503 18.012C0.852829 18.1137 0.82984 18.2231 0.828879 18.3337C0.827917 18.4444 0.849002 18.5541 0.890903 18.6565C0.932803 18.7589 0.994681 18.852 1.07292 18.9302C1.15117 19.0084 1.24421 19.0703 1.34663 19.1122C1.44904 19.1541 1.55877 19.1752 1.66942 19.1742C1.78007 19.1733 1.88942 19.1503 1.99109 19.1066C2.09276 19.063 2.18471 18.9995 2.26159 18.9199L4.80492 16.3765C6.37598 17.3107 8.17215 17.7985 9.99992 17.7874C15.1591 17.7874 18.0991 14.2557 19.3924 12.1507C19.792 11.5045 20.0036 10.7597 20.0036 9.99987C20.0036 9.24008 19.792 8.4953 19.3924 7.84904ZM2.02742 11.2782C1.79003 10.8941 1.6643 10.4514 1.6643 9.99987C1.6643 9.54831 1.79003 9.10567 2.02742 8.72154C3.13909 6.91654 5.65159 3.87904 9.99992 3.87904C11.3835 3.87129 12.7476 4.20474 13.9716 4.84987L12.2941 6.52737C11.494 5.99621 10.5348 5.7582 9.57928 5.85375C8.62372 5.94929 7.73064 6.37249 7.05159 7.05154C6.37254 7.7306 5.94933 8.62367 5.85379 9.57923C5.75825 10.5348 5.99626 11.494 6.52742 12.294L4.60242 14.219C3.58167 13.3938 2.71062 12.399 2.02742 11.2782ZM12.4999 9.99987C12.4999 10.6629 12.2365 11.2988 11.7677 11.7676C11.2988 12.2365 10.663 12.4999 9.99992 12.4999C9.62868 12.4984 9.26259 12.413 8.92909 12.2499L12.2499 8.92904C12.413 9.26254 12.4985 9.62863 12.4999 9.99987ZM7.49992 9.99987C7.49992 9.33683 7.76331 8.70095 8.23215 8.23211C8.70099 7.76327 9.33688 7.49987 9.99992 7.49987C10.3712 7.50131 10.7373 7.58678 11.0708 7.74987L7.74992 11.0707C7.58683 10.7372 7.50136 10.3711 7.49992 9.99987ZM17.9724 11.2782C16.8608 13.0832 14.3483 16.1207 9.99992 16.1207C8.61636 16.1285 7.25222 15.795 6.02825 15.1499L7.70575 13.4724C8.50581 14.0035 9.465 14.2415 10.4206 14.146C11.3761 14.0505 12.2692 13.6273 12.9483 12.9482C13.6273 12.2692 14.0505 11.3761 14.146 10.4205C14.2416 9.46495 14.0036 8.50576 13.4724 7.70571L15.3974 5.78071C16.4182 6.60594 17.2892 7.60075 17.9724 8.72154C18.2098 9.10567 18.3355 9.54831 18.3355 9.99987C18.3355 10.4514 18.2098 10.8941 17.9724 11.2782Z" fill="#E1E1E1"/>
</g>
<defs>
<clipPath id="clip0_1_495">
<rect width="20" height="20" fill="white"/>
</clipPath>
</defs>
</svg>
