<svg width="28" height="28" viewBox="0 0 28 28" fill="none" xmlns="http://www.w3.org/2000/svg">
<path fill-rule="evenodd" clip-rule="evenodd" d="M4.08428 15.9318V15.6787C4.12176 14.93 4.36401 14.2046 4.78606 13.5773C5.48857 12.8237 5.96947 11.9002 6.17831 10.9038C6.17831 10.1336 6.17831 9.35248 6.24623 8.58233C6.59712 4.8746 10.2985 2.3111 13.9545 2.3111H14.0451C17.7012 2.3111 21.4025 4.8746 21.7647 8.58233C21.8326 9.35248 21.7647 10.1336 21.8213 10.9038C22.033 11.9026 22.5134 12.8289 23.2136 13.5883C23.6388 14.2101 23.8814 14.9328 23.9154 15.6787V15.9208C23.9406 16.9266 23.5909 17.9074 22.9306 18.6823C22.0581 19.5884 20.8741 20.152 19.6028 20.2666C15.8748 20.6627 12.1135 20.6627 8.38554 20.2666C7.11565 20.1471 5.93336 19.5842 5.05772 18.6823C4.40765 17.9068 4.06259 16.9319 4.08428 15.9318Z" stroke="#BDBDBD" stroke-width="1.5" stroke-linecap="round" stroke-linejoin="round"/>
<path d="M11.1474 24.0954C11.7299 24.8196 12.5853 25.2882 13.5242 25.3977C14.4632 25.5071 15.4083 25.2483 16.1505 24.6785C16.3787 24.51 16.5841 24.3141 16.7617 24.0954" stroke="#BDBDBD" stroke-width="1.5" stroke-linecap="round" stroke-linejoin="round"/>
</svg>
