<svg width="22" height="22" viewBox="0 0 22 22" fill="none" xmlns="http://www.w3.org/2000/svg">
<path d="M6.88395 18.1516C8.09532 18.8502 9.50082 19.25 10.9997 19.25C15.556 19.25 19.25 15.5563 19.25 11C19.25 6.44365 15.5563 2.75 11 2.75C6.44365 2.75 2.75 6.44365 2.75 11C2.75 12.4989 3.14971 13.9044 3.84834 15.1157L3.85105 15.1204C3.91827 15.237 3.95217 15.2957 3.96752 15.3513C3.98201 15.4037 3.98605 15.4508 3.98234 15.505C3.97836 15.5633 3.95872 15.6237 3.91846 15.7445L3.2137 17.8587L3.21282 17.8615C3.06412 18.3076 2.98977 18.5306 3.04277 18.6793C3.08898 18.8088 3.19154 18.9111 3.32113 18.9573C3.46941 19.0102 3.69146 18.9362 4.13558 18.7881L4.14111 18.7861L6.25538 18.0813C6.37576 18.0412 6.43696 18.0209 6.49513 18.0169C6.54935 18.0132 6.59613 18.0181 6.64852 18.0326C6.70421 18.0479 6.76302 18.0819 6.88017 18.1494L6.88395 18.1516Z" stroke="black" stroke-width="2" stroke-linecap="round" stroke-linejoin="round"/>
</svg>
