<svg width="32" height="32" viewBox="0 0 32 32" fill="none" xmlns="http://www.w3.org/2000/svg">
<path d="M10.75 19C10.75 18.6933 10.5633 18.4175 10.2785 18.3036C10.0015 18.1928 9.3553 17.7825 8.78031 17.0406C8.21946 16.3169 7.75 15.308 7.75 14C7.75 10.7127 11.2573 7.75 16 7.75C18.3602 7.75 20.4438 8.38315 21.9172 9.47576C23.3743 10.5563 24.25 12.0915 24.25 14C24.25 15.7553 23.4932 17.1614 22.175 18.15C20.8376 19.1531 18.8841 19.75 16.5 19.75C16.3474 19.75 16.1985 19.7965 16.0731 19.8834L10.75 23.5686V19Z" stroke="#1B141F" stroke-width="1.5" stroke-linecap="round" stroke-linejoin="round"/>
</svg>
