<svg width="30" height="28" viewBox="0 0 30 28" fill="none" xmlns="http://www.w3.org/2000/svg">
<g opacity="0.9">
<g clip-path="url(#clip0_105_167)">
<path d="M13.75 7.875C13.75 11.0591 11.5559 13.5 9 13.5C6.44411 13.5 4.25 11.0591 4.25 7.875C4.25 4.6909 6.44411 2.25 9 2.25C11.5559 2.25 13.75 4.6909 13.75 7.875ZM9 17.125C10.2041 17.125 11.3301 16.7947 12.3394 16.25H12.6C15.2356 16.25 17.5 18.7729 17.5 22.05V23.625C17.5 24.8732 16.6465 25.75 15.75 25.75H2.25C1.35349 25.75 0.5 24.8732 0.5 23.625V22.05C0.5 18.7729 2.76443 16.25 5.4 16.25H5.6611C6.67347 16.7943 7.79511 17.125 9 17.125ZM26.5 8.75C26.5 11.4474 24.6387 13.5 22.5 13.5C20.3613 13.5 18.5 11.4474 18.5 8.75C18.5 6.05262 20.3613 4 22.5 4C24.6387 4 26.5 6.05262 26.5 8.75ZM22.5 16.6875C23.2766 16.6875 23.9996 16.5096 24.6672 16.25H24.75C27.3059 16.25 29.5 18.6909 29.5 21.875C29.5 23.1232 28.6465 24 27.75 24H20V22.05C20 20.0403 19.3831 18.1991 18.369 16.7367C18.954 16.4272 19.5852 16.25 20.25 16.25H20.3328C21.0004 16.5096 21.7234 16.6875 22.5 16.6875Z" fill="white" stroke="#BDBDBD"/>
</g>
</g>
<defs>
<clipPath id="clip0_105_167">
<rect width="30" height="28" fill="white"/>
</clipPath>
</defs>
</svg>
